<?xml version="1.0" standalone="no"?><!DOCTYPE svg PUBLIC "-//W3C//DTD SVG 1.1//EN" "http://www.w3.org/Graphics/SVG/1.1/DTD/svg11.dtd"><svg t="1540970460856" class="icon" style="" viewBox="0 0 1024 1024" version="1.1" xmlns="http://www.w3.org/2000/svg" p-id="1051" xmlns:xlink="http://www.w3.org/1999/xlink" width="200" height="200"><defs><style type="text/css"></style></defs><path d="M512 966.4c-61.32736 0-120.83968-12.02048-176.88448-35.7248-54.11456-22.88896-102.70592-55.648-144.42496-97.36576-41.71904-41.71904-74.4768-90.3104-97.36576-144.42368C69.6192 632.8384 57.6 573.32608 57.6 512c0-61.32736 12.0192-120.83968 35.7248-176.88448 22.88896-54.11456 55.64672-102.70592 97.36576-144.42496 41.71904-41.71904 90.3104-74.47808 144.42496-97.36576C391.16032 69.6192 450.67264 57.6 512 57.6c61.32736 0 120.83968 12.0192 176.88448 35.7248 54.11328 22.88896 102.70592 55.64672 144.42496 97.36576 41.71904 41.71904 74.47808 90.3104 97.36448 144.42496C954.37952 391.16032 966.4 450.67264 966.4 512c0 81.4272-21.80096 161.32096-63.0464 231.04256-10.79808 18.2528-34.34752 24.29696-52.6016 13.49888-18.2528-10.79808-24.29568-34.3488-13.49888-52.6016C871.49824 646.05184 889.6 579.67872 889.6 512c0-208.20992-169.39136-377.6-377.6-377.6-208.20992 0-377.6 169.39008-377.6 377.6 0 208.20864 169.39008 377.6 377.6 377.6 58.304 0 114.1888-12.91776 166.1056-38.39232 19.04256-9.34016 42.048-1.47968 51.38944 17.55776 9.34272 19.03872 1.48096 42.048-17.55776 51.38944C649.4016 950.8416 582.13248 966.4 512 966.4z" fill="#FFFFFF" p-id="1052"></path><path d="M736 550.4H288c-21.20704 0-38.4-17.19296-38.4-38.4s17.19296-38.4 38.4-38.4h448c21.20704 0 38.4 17.19296 38.4 38.4s-17.19296 38.4-38.4 38.4z" fill="#FFFFFF" p-id="1053"></path><path d="M512 774.4c-21.20704 0-38.4-17.19296-38.4-38.4V288c0-21.20704 17.19296-38.4 38.4-38.4s38.4 17.19296 38.4 38.4v448c0 21.20704-17.19296 38.4-38.4 38.4z" fill="#FFFFFF" p-id="1054"></path></svg>